<?xml version="1.0" encoding="utf-8"?>
<!-- Generator: Adobe Illustrator 16.0.0, SVG Export Plug-In . SVG Version: 6.00 Build 0)  -->
<!DOCTYPE svg PUBLIC "-//W3C//DTD SVG 1.1//EN" "http://www.w3.org/Graphics/SVG/1.1/DTD/svg11.dtd">
<svg version="1.1" id="Layer_1" xmlns="http://www.w3.org/2000/svg" xmlns:xlink="http://www.w3.org/1999/xlink" x="0px" y="0px"
	 width="2646px" height="63px" viewBox="-0.506 0 2646 63" enable-background="new -0.506 0 2646 63" xml:space="preserve">
<g id="vtour">
	<circle fill="#C4197F" cx="894.9" cy="-1355.7" r="31.5"/>
	<path fill="#FFFFFF" d="M886.63-1363.85c-4.53,4.53-4.53,11.87,0,16.39c4.53,4.53,11.87,4.53,16.4,0s4.53-11.87,0-16.39
		C898.5-1368.38,891.16-1368.38,886.63-1363.85z M901.03-1349.46c-3.42,3.42-8.97,3.42-12.391,0c-3.42-3.42-3.42-8.97,0-12.39
		c3.42-3.42,8.971-3.42,12.4,0C904.45-1358.43,904.45-1352.88,901.03-1349.46z"/>
	
		<rect x="881.179" y="-1373.296" transform="matrix(-0.707 0.7073 -0.7073 -0.707 539.5789 -2958.9502)" fill="#FFFFFF" width="3.23" height="11.21"/>
	<polygon fill="#FFFFFF" points="878.92,-1365.68 875.69,-1365.68 875.59,-1374.89 878.92,-1371.75 	"/>
	<polygon fill="#FFFFFF" points="884.91,-1374.91 884.91,-1371.67 878.85,-1371.67 875.59,-1374.89 	"/>
	
		<rect x="905.39" y="-1349.299" transform="matrix(0.7072 -0.707 0.707 0.7072 1215.6204 247.8239)" fill="#FFFFFF" width="3.23" height="11.21"/>
	<polygon fill="#FFFFFF" points="910.88,-1345.71 914.11,-1345.71 914.21,-1336.5 910.88,-1339.64 	"/>
	<polygon fill="#FFFFFF" points="904.89,-1336.49 904.89,-1339.72 910.95,-1339.72 914.21,-1336.5 	"/>
	
		<rect x="881.194" y="-1349.119" transform="matrix(0.7069 0.7073 -0.7073 0.7069 -691.5435 -1018.2513)" fill="#FFFFFF" width="3.23" height="11.21"/>
	<polygon fill="#FFFFFF" points="884.91,-1339.72 884.91,-1336.49 875.7,-1336.39 878.85,-1339.72 	"/>
	<polygon fill="#FFFFFF" points="875.69,-1345.71 878.92,-1345.71 878.92,-1339.64 875.7,-1336.39 	"/>
	
		<rect x="905.294" y="-1373.354" transform="matrix(-0.7067 -0.7075 0.7075 -0.7067 2515.5088 -1692.7534)" fill="#FFFFFF" width="3.229" height="11.21"/>
	<polygon fill="#FFFFFF" points="904.89,-1371.67 904.89,-1374.91 914.1,-1375 910.95,-1371.67 	"/>
	<polygon fill="#FFFFFF" points="914.11,-1365.68 910.88,-1365.68 910.88,-1371.75 914.1,-1375 	"/>
</g>
<g id="undergrad-research">
	<circle fill="#00B4E0" cx="831.9" cy="-1355.7" r="31.5"/>
	<path fill="#FFFFFF" d="M838.96-1352.19c-1.46,2.57-4.21,4.31-7.38,4.31c-4.68,0-8.48-3.8-8.48-8.48c0-2.77,1.33-5.21,3.381-6.76
		l-2.211-2.63c-2.8,2.18-4.6,5.57-4.6,9.39c0,6.58,5.33,11.91,11.91,11.91c5.11,0,9.45-3.22,11.15-7.74H838.96z"/>
	
		<rect x="824.602" y="-1373.422" transform="matrix(-0.7394 0.6732 -0.6732 -0.7394 518.2433 -2932.1653)" fill="#FFFFFF" width="3.909" height="15.261"/>
	
		<rect x="837.96" y="-1360.765" transform="matrix(0.0025 1 -1 0.0025 -515.3087 -2189.6624)" fill="#FFFFFF" width="3.91" height="15.27"/>
	
		<rect x="816.986" y="-1376.011" transform="matrix(-0.7394 0.6732 -0.6732 -0.7394 499.4167 -2941.3823)" fill="#FFFFFF" width="3.911" height="3.94"/>
	<path fill="#FFFFFF" d="M831.44-1341.63c3.189,0,5.97,1.77,7.42,4.38h3.76c-1.67-4.55-6.04-7.81-11.17-7.81
		c-5.11,0-9.45,3.22-11.15,7.74h3.771C825.52-1339.9,828.27-1341.63,831.44-1341.63z"/>
</g>
<g id="save">
	<circle fill="#EB8B23" cx="768.9" cy="-1355.7" r="31.5"/>
	<path fill="none" stroke="#FFFFFF" stroke-width="2.5" stroke-miterlimit="10" d="M780.93-1342.9v-27.35c0-2.84-2.3-5.14-5.14-5.14
		h-22.6c2.84,0,5.14,2.3,5.14,5.14v27.35c0,2.84,2.3,5.14,5.14,5.14"/>
	<path fill="none" stroke="#FFFFFF" stroke-width="2.5" stroke-miterlimit="10" d="M753.18-1375.39c-2.84,0-5.14,2.3-5.14,5.14
		h10.27"/>
	<path fill="none" stroke="#FFFFFF" stroke-width="2.5" stroke-miterlimit="10" d="M786.06-1337.76c2.841,0,5.141-2.3,5.141-5.13
		H768.6c0,2.84-2.3,5.14-5.14,5.14h22.6V-1337.76z"/>
	
		<line fill="none" stroke="#FFFFFF" stroke-width="2.5" stroke-miterlimit="10" x1="762.69" y1="-1367.29" x2="776.67" y2="-1367.29"/>
	
		<line fill="none" stroke="#FFFFFF" stroke-width="2.5" stroke-miterlimit="10" x1="762.69" y1="-1361.42" x2="776.67" y2="-1361.42"/>
	
		<line fill="none" stroke="#FFFFFF" stroke-width="2.5" stroke-miterlimit="10" x1="762.69" y1="-1355.56" x2="776.67" y2="-1355.56"/>
	
		<line fill="none" stroke="#FFFFFF" stroke-width="2.5" stroke-miterlimit="10" x1="762.69" y1="-1349.7" x2="776.67" y2="-1349.7"/>
</g>
<g id="read-principles">
	<circle fill="#EB8B23" cx="705.9" cy="-1355.7" r="31.5"/>
	<path fill="#FFFFFF" d="M705.9-1336.94l-17.33-7.02v-29.35l17.22,6.78l17.44-6.77v29.34L705.9-1336.94z M691.58-1345.99l14.32,5.8
		l14.319-5.8v-22.92l-14.43,5.6l-14.2-5.59L691.58-1345.99L691.58-1345.99z"/>
	<rect x="704.28" y="-1364.92" fill="#FFFFFF" width="3.01" height="26.36"/>
	<polygon fill="#FFFFFF" points="701.33,-1358.31 701.33,-1361.61 694.36,-1364.28 694.34,-1361.06 	"/>
	<polygon fill="#FFFFFF" points="701.33,-1351.67 701.33,-1354.96 694.36,-1357.64 694.34,-1354.41 	"/>
	<polygon fill="#FFFFFF" points="701.33,-1345.02 701.33,-1348.32 694.36,-1350.99 694.34,-1347.77 	"/>
	<polygon fill="#FFFFFF" points="710.04,-1358.31 710.04,-1361.61 717.01,-1364.28 717.04,-1361.06 	"/>
	<polygon fill="#FFFFFF" points="710.04,-1351.67 710.04,-1354.96 717.01,-1357.64 717.04,-1354.41 	"/>
	<polygon fill="#FFFFFF" points="710.04,-1345.02 710.04,-1348.32 717.01,-1350.99 717.04,-1347.77 	"/>
</g>
<g id="orientation">
	<circle fill="#78BD43" cx="642.89" cy="-1355.7" r="31.5"/>
	<path fill="#FFFFFF" d="M637.97-1376.8c-2.479,2.479-2.479,6.51,0,8.99c2.48,2.48,6.511,2.48,8.99,0c2.49-2.48,2.49-6.51,0-8.99
		C644.48-1379.29,640.46-1379.29,637.97-1376.8z M645.03-1369.75c-1.41,1.41-3.7,1.41-5.11,0s-1.41-3.7,0-5.11
		c1.41-1.41,3.7-1.41,5.11,0C646.44-1373.45,646.44-1371.16,645.03-1369.75z M638.16-1367.81l-3.47,7.82h15.63l-3.58-7.82
		l-2.21,1.58l1.6,3.52l-7.16-0.06l1.65-3.51"/>
	<path fill="#FFFFFF" d="M649.23-1354.73c-2.48,2.48-2.48,6.51,0,9c2.479,2.48,6.51,2.48,8.989,0c2.48-2.48,2.48-6.51,0-9
		C655.74-1357.21,651.71-1357.21,649.23-1354.73z M656.29-1347.67c-1.41,1.41-3.7,1.41-5.11,0s-1.41-3.7,0-5.12
		c1.41-1.41,3.7-1.41,5.12,0C657.7-1351.37,657.7-1349.08,656.29-1347.67z M649.42-1345.73l-3.47,7.82h15.63l-3.58-7.82l-2.21,1.58
		l1.6,3.52l-7.159-0.06l1.649-3.51"/>
	<path fill="#FFFFFF" d="M626.79-1354.73c-2.48,2.48-2.48,6.51,0,9c2.479,2.48,6.51,2.48,9,0c2.479-2.48,2.479-6.51,0-9
		C633.31-1357.21,629.28-1357.21,626.79-1354.73z M633.85-1347.67c-1.409,1.41-3.699,1.41-5.109,0s-1.41-3.7,0-5.12
		c1.41-1.41,3.7-1.41,5.109,0C635.26-1351.37,635.26-1349.08,633.85-1347.67z M626.99-1345.73l-3.471,7.82h15.631l-3.58-7.82
		l-2.21,1.58l1.6,3.52l-7.16-0.06l1.65-3.51"/>
</g>
<g id="org-chart">
	<circle fill="#78BD43" cx="579.89" cy="-1355.7" r="31.5"/>
	<path fill="#FFFFFF" d="M571.51-1372.59v12.48h16.471v-12.48H571.51z M585.25-1362.52h-11.01v-7.65h11.01V-1362.52z"/>
	<path fill="#FFFFFF" d="M557.26-1354.43v12.48h16.471v-12.48H557.26z M571-1344.37h-11.01v-7.65H571V-1344.37z"/>
	<path fill="#FFFFFF" d="M585.81-1354.43v12.48h16.471v-12.48H585.81z M599.55-1344.37h-11.01v-7.65h11.01V-1344.37L599.55-1344.37z
		"/>
	<rect x="578.45" y="-1360.11" fill="#FFFFFF" width="2.6" height="13.22"/>
	<rect x="571.66" y="-1349.49" fill="#FFFFFF" width="16.17" height="2.6"/>
</g>
<g id="menu">
	<circle fill="#EB8B23" cx="516.89" cy="-1355.7" r="31.5"/>
	<rect x="507.43" y="-1372.22" fill="#FFFFFF" width="3.011" height="38.32"/>
	<polygon fill="#FFFFFF" points="514.63,-1360.47 503.34,-1360.47 503.34,-1372.22 506.35,-1372.22 506.35,-1363.48 
		511.62,-1363.48 511.62,-1372.22 514.63,-1372.22 	"/>
	<path fill="#FFFFFF" d="M527.01-1333.84h-8.189v-37.56l8.189-2.97V-1333.84z M521.82-1336.85H524v-33.23l-2.18,0.79V-1336.85z"/>
	<rect x="520.32" y="-1354.15" fill="#FFFFFF" width="5.18" height="3.01"/>
</g>
<g id="mailing-list">
	<circle fill="#EB8B23" cx="453.89" cy="-1355.7" r="31.5"/>
	<path fill="#FFFFFF" d="M473.2-1344.21h-38.61v-23.36l19.3,15.58l19.311-15.58V-1344.21L473.2-1344.21z M436.85-1346.47h34.091
		v-16.36l-17.051,13.75l-17.04-13.75V-1346.47z"/>
	<rect x="434.58" y="-1367.57" fill="#FFFFFF" width="38.61" height="2.65"/>
</g>
<g id="jobs">
	<circle fill="#DEB209" cx="390.89" cy="-1355.7" r="31.5"/>
	<path fill="#FFFFFF" d="M396.25-1338.85c-11.68,0-21.57-6.82-24.82-12.77l-0.87-1.6l2.97-0.95c-0.35-3.93-0.57-15.61,8.43-19.6
		c5.77-2.55,11.97-2.28,16.58,0.74c3.67,2.4,8.03,7.61,7.979,18.81c0,0.46-0.21,0.87-0.529,1.14l1.37,1.19
		c0.409,0.36,3.97,3.58,3.02,7.15c-0.69,2.61-3.42,4.35-8.32,5.33C400.08-1339.03,398.14-1338.85,396.25-1338.85z M375.09-1351.52
		c4.23,5.57,14.92,11.42,26.37,9.14c3.51-0.7,5.65-1.81,6-3.14c0.25-0.91-0.33-2.01-0.97-2.87c-5.9,6.51-19.78,2.44-20.41,2.25
		c-0.8-0.24-1.25-1.08-1.01-1.87c0.24-0.79,1.08-1.25,1.87-1.01c0.14,0.04,14.35,4.2,18.1-2.48l0.86-1.53
		c-0.25,0.19-0.561,0.3-0.91,0.3c-0.83,0-1.5-0.68-1.5-1.51c0.029-7.79-2.25-13.42-6.61-16.27c-3.75-2.45-8.88-2.64-13.71-0.5
		c-8.54,3.78-6.54,17.53-6.52,17.67l0.19,1.27L375.09-1351.52z"/>
	<path fill="#FFFFFF" d="M386.78-1360.39c-0.56,0-1.1-0.31-1.36-0.85c-2.27-4.7-6.22-8.64-6.26-8.68c-0.59-0.58-0.6-1.54-0.01-2.13
		c0.58-0.59,1.54-0.6,2.13-0.01c0.18,0.18,4.36,4.35,6.86,9.51c0.36,0.75,0.05,1.65-0.7,2.01
		C387.22-1360.44,387-1360.39,386.78-1360.39z"/>
	<path fill="#FFFFFF" d="M393.32-1360.39c-0.71,0-1.34-0.5-1.47-1.22c-0.93-4.81-6.65-10.33-6.71-10.39
		c-0.6-0.57-0.62-1.53-0.05-2.13c0.57-0.6,1.53-0.62,2.13-0.05c0.26,0.25,6.47,6.25,7.58,11.99c0.16,0.81-0.38,1.6-1.19,1.76
		C393.51-1360.4,393.42-1360.39,393.32-1360.39z"/>
	<path fill="#FFFFFF" d="M398.4-1362.2c-0.71,0-1.341-0.5-1.48-1.229c-0.84-4.521-5.02-8.521-5.06-8.561
		c-0.6-0.57-0.63-1.52-0.06-2.13c0.57-0.6,1.52-0.63,2.13-0.06c0.2,0.19,4.93,4.7,5.959,10.2c0.15,0.82-0.39,1.6-1.199,1.75
		C398.58-1362.21,398.49-1362.2,398.4-1362.2z"/>
</g>
<g id="giving">
	<circle fill="#78BD43" cx="327.89" cy="-1355.7" r="31.5"/>
	<path fill="#FFFFFF" d="M335.95-1364.61c0,0,8.84-4.81,2.55-9.16c-5.73-3.96-9.52,9.08-9.52,9.08h-0.66c0,0-3.54-13.88-9.63-9.08
		c-5.31,4.19,2.86,9.08,2.86,9.08H306.3v9.89h3.72v16.189h35.58v-16.189h3.91v-9.8L335.95-1364.61L335.95-1364.61z M337.68-1371.34
		c3.69,2.71-6.24,6.01-6.24,6.01S333.99-1374.05,337.68-1371.34z M319.41-1371.01c2.71-4.19,6.36,5.67,6.36,5.67
		S317.44-1367.96,319.41-1371.01z M326.93-1340.72h-14.57v-14.09h14.57V-1340.72z M343.43-1340.72h-14.11v-14.09h14.11V-1340.72
		L343.43-1340.72z M347.45-1357.05h-38.83v-5.01h38.83V-1357.05z"/>
</g>
<g id="get-published">
	<circle fill="#642667" cx="264.89" cy="-1355.7" r="31.5"/>
	<path fill="#FFFFFF" d="M264.87-1336.56l-17.33-7.02v-29.35l17.22,6.78l17.44-6.77v29.34L264.87-1336.56z M250.55-1345.6l14.32,5.8
		l14.32-5.8v-22.92l-14.44,5.6l-14.2-5.59V-1345.6L250.55-1345.6z"/>
	<polygon fill="#FFFFFF" points="260.32,-1358.31 260.32,-1361.61 253.35,-1364.28 253.33,-1361.06 	"/>
	<polygon fill="#FFFFFF" points="260.32,-1351.67 260.32,-1354.96 253.35,-1357.64 253.33,-1354.41 	"/>
	<polygon fill="#FFFFFF" points="260.32,-1345.02 260.32,-1348.32 253.35,-1350.99 253.33,-1347.77 	"/>
	<polygon fill="#FFFFFF" points="269.03,-1358.31 269.03,-1361.61 276,-1364.28 276.02,-1361.06 	"/>
	<polygon fill="#FFFFFF" points="269.03,-1351.67 269.03,-1354.96 276,-1357.64 276.02,-1354.41 	"/>
	<polygon fill="#FFFFFF" points="269.03,-1345.02 269.03,-1348.32 276,-1350.99 276.02,-1347.77 	"/>
	<rect x="263.26" y="-1364.53" fill="#FFFFFF" width="3.01" height="26.36"/>
</g>
<g id="deadlines">
	<circle fill="#C4197F" cx="201.89" cy="-1355.7" r="31.5"/>
	<path fill="#FFFFFF" d="M217.14-1339.09h-30.51v-31.66h30.51V-1339.09L217.14-1339.09z M189.37-1341.95h25.03v-25.95h-25.03
		V-1341.95z"/>
	<rect x="187.67" y="-1361.9" fill="#FFFFFF" width="28.31" height="2.86"/>
	<g enable-background="new    ">
		<path fill="#FFFFFF" d="M200.16-1353.51l-1.79,0.42l-0.56-2.27l3.1-0.88h2.13v10.67h-2.89v-7.94H200.16z"/>
	</g>
</g>
<g id="contact">
	<circle fill="#EB8B23" cx="138.88" cy="-1355.7" r="31.5"/>
	<path fill="none" stroke="#FFFFFF" stroke-width="3" stroke-miterlimit="10" d="M128.63-1373.49c0,0-3.53,1.521-5.99,5.72
		c0,0-0.08,8.68,10.52,18.42c10.59,9.73,17.69,9.73,17.69,9.73s3.97-2.73,5.41-6.25l-8.13-6.08l-5.13,2.51l-10.64-10.5l2.35-5.04
		L128.63-1373.49z"/>
</g>
<g id="clubs-orgs">
	<circle fill="#642667" cx="75.88" cy="-1355.7" r="31.5"/>
	<path fill="#FFFFFF" d="M70.96-1376.8c-2.48,2.479-2.48,6.51,0,8.99s6.51,2.48,8.99,0s2.48-6.51,0-8.99
		C77.47-1379.28,73.45-1379.28,70.96-1376.8z M78.02-1369.75c-1.41,1.41-3.7,1.41-5.11,0c-1.41-1.41-1.41-3.7,0-5.11
		c1.41-1.41,3.7-1.41,5.11,0C79.43-1373.45,79.43-1371.16,78.02-1369.75z M71.15-1367.81l-3.47,7.82h15.63l-3.58-7.82l-2.21,1.58
		l1.6,3.52l-7.16-0.06l1.65-3.51"/>
	<path fill="#FFFFFF" d="M82.22-1354.73c-2.48,2.48-2.48,6.51,0,9c2.49,2.48,6.51,2.48,9,0c2.48-2.48,2.48-6.51,0-9
		C88.73-1357.21,84.7-1357.21,82.22-1354.73z M89.27-1347.67c-1.41,1.41-3.7,1.41-5.11,0c-1.41-1.41-1.41-3.7,0-5.12
		c1.41-1.41,3.7-1.41,5.12,0C90.69-1351.37,90.69-1349.08,89.27-1347.67z M82.41-1345.73l-3.47,7.82h15.63l-3.57-7.82l-2.21,1.58
		l1.6,3.52l-7.16-0.06l1.65-3.51"/>
	<path fill="#FFFFFF" d="M59.78-1354.73c-2.48,2.48-2.48,6.51,0,9s6.51,2.48,9,0c2.48-2.48,2.48-6.51,0-9
		C66.3-1357.21,62.27-1357.21,59.78-1354.73z M66.84-1347.67c-1.41,1.41-3.7,1.41-5.11,0s-1.41-3.7,0-5.12
		c1.41-1.41,3.7-1.41,5.12,0C68.25-1351.37,68.25-1349.08,66.84-1347.67z M59.97-1345.73l-3.47,7.82h15.63l-3.58-7.82l-2.21,1.58
		l1.6,3.52l-7.16-0.06l1.65-3.51"/>
</g>
<g id="alumni">
	<circle fill="#DEB209" cx="12.9" cy="-1355.7" r="31.5"/>
	<path fill="#FFFFFF" d="M-0.34-1340.27v-30.85H26.5v30.82l-13.6-7.34L-0.34-1340.27z M12.9-1350.72l10.67,5.76v-23.31H2.59v23.29
		L12.9-1350.72z"/>
</g>
<g id="vtour_1_">
	<circle fill="#C4197F" cx="913.578" cy="31.5" r="31.5"/>
	<path fill="#FFFFFF" d="M905.309,23.35c-4.531,4.53-4.531,11.871,0,16.39c4.529,4.53,11.869,4.53,16.4,0
		c4.529-4.53,4.529-11.87,0-16.39C917.178,18.82,909.838,18.82,905.309,23.35z M919.709,37.74c-3.42,3.42-8.971,3.42-12.391,0
		s-3.42-8.97,0-12.39c3.42-3.42,8.971-3.42,12.4,0C923.129,28.77,923.129,34.32,919.709,37.74z"/>
	
		<rect x="899.857" y="13.905" transform="matrix(-0.707 0.7073 -0.7073 -0.707 1552.5702 -604.2716)" fill="#FFFFFF" width="3.23" height="11.209"/>
	<polygon fill="#FFFFFF" points="897.598,21.52 894.369,21.52 894.268,12.31 897.598,15.45 	"/>
	<polygon fill="#FFFFFF" points="903.588,12.29 903.588,15.53 897.527,15.53 894.268,12.31 	"/>
	
		<rect x="924.068" y="37.901" transform="matrix(0.7073 -0.707 0.707 0.7073 240.2295 667.1534)" fill="#FFFFFF" width="3.231" height="11.21"/>
	<polygon fill="#FFFFFF" points="929.559,41.49 932.789,41.49 932.889,50.7 929.559,47.561 	"/>
	<polygon fill="#FFFFFF" points="923.568,50.71 923.568,47.48 929.629,47.48 932.889,50.7 	"/>
	
		<rect x="899.872" y="38.081" transform="matrix(0.7068 0.7074 -0.7074 0.7068 295.216 -624.9117)" fill="#FFFFFF" width="3.23" height="11.211"/>
	<polygon fill="#FFFFFF" points="903.588,47.48 903.588,50.71 894.379,50.811 897.527,47.48 	"/>
	<polygon fill="#FFFFFF" points="894.369,41.49 897.598,41.49 897.598,47.561 894.379,50.811 	"/>
	
		<rect x="923.972" y="13.846" transform="matrix(-0.7069 -0.7073 0.7073 -0.7069 1566.1077 687.8986)" fill="#FFFFFF" width="3.23" height="11.21"/>
	<polygon fill="#FFFFFF" points="923.568,15.53 923.568,12.29 932.777,12.2 929.629,15.53 	"/>
	<polygon fill="#FFFFFF" points="932.789,21.52 929.559,21.52 929.559,15.45 932.777,12.2 	"/>
</g>
<g id="vtour_5_">
	<circle fill="#C4197F" cx="2109.487" cy="31.5" r="31.5"/>
	<g>
		<path fill="#FFFFFF" d="M2103.053,21.145c-4.531,4.53-4.531,11.871,0,16.39c4.529,4.53,11.869,4.53,16.4,0
			c4.529-4.53,4.529-11.87,0-16.39C2114.922,16.615,2107.582,16.615,2103.053,21.145z M2117.453,35.535
			c-3.42,3.42-8.971,3.42-12.391,0s-3.42-8.97,0-12.39c3.42-3.42,8.971-3.42,12.4,0
			C2120.873,26.565,2120.873,32.115,2117.453,35.535z"/>
		
			<rect x="2097.616" y="35.876" transform="matrix(0.7068 0.7074 -0.7074 0.7068 644.8295 -1472.8533)" fill="#FFFFFF" width="3.23" height="11.211"/>
	</g>
</g>
<g id="vtour_6_">
	<circle fill="#78BC43" cx="2172.487" cy="31.5" r="31.5"/>
	<g>
		<path fill="#FFFFFF" d="M2166.053,21.145c-4.531,4.53-4.531,11.871,0,16.39c4.529,4.53,11.869,4.53,16.4,0
			c4.529-4.53,4.529-11.87,0-16.39C2177.922,16.615,2170.582,16.615,2166.053,21.145z M2180.453,35.535
			c-3.42,3.42-8.971,3.42-12.391,0s-3.42-8.97,0-12.39c3.42-3.42,8.971-3.42,12.4,0
			C2183.873,26.565,2183.873,32.115,2180.453,35.535z"/>
		
			<rect x="2160.616" y="35.876" transform="matrix(0.7068 0.7074 -0.7074 0.7068 663.3008 -1517.42)" fill="#FFFFFF" width="3.23" height="11.211"/>
	</g>
</g>
<g id="vtour_7_">
	<circle fill="#EA8A23" cx="2235.487" cy="31.5" r="31.5"/>
	<g>
		<path fill="#FFFFFF" d="M2229.053,21.145c-4.531,4.53-4.531,11.871,0,16.39c4.529,4.53,11.869,4.53,16.4,0
			c4.529-4.53,4.529-11.87,0-16.39C2240.922,16.615,2233.582,16.615,2229.053,21.145z M2243.453,35.535
			c-3.42,3.42-8.971,3.42-12.391,0s-3.42-8.97,0-12.39c3.42-3.42,8.971-3.42,12.4,0
			C2246.873,26.565,2246.873,32.115,2243.453,35.535z"/>
		
			<rect x="2223.616" y="35.876" transform="matrix(0.7068 0.7074 -0.7074 0.7068 681.7721 -1561.9868)" fill="#FFFFFF" width="3.23" height="11.211"/>
	</g>
</g>
<g id="vtour_2_">
	<circle fill="#78BC43" cx="976.578" cy="31.5" r="31.5"/>
	<path fill="#FFFFFF" d="M968.309,23.35c-4.531,4.53-4.531,11.871,0,16.39c4.529,4.53,11.869,4.53,16.4,0
		c4.529-4.53,4.529-11.87,0-16.39C980.178,18.82,972.838,18.82,968.309,23.35z M982.709,37.74c-3.42,3.42-8.971,3.42-12.391,0
		s-3.42-8.97,0-12.39c3.42-3.42,8.971-3.42,12.4,0C986.129,28.77,986.129,34.32,982.709,37.74z"/>
	
		<rect x="962.857" y="13.905" transform="matrix(-0.707 0.7073 -0.7073 -0.707 1660.1084 -648.8289)" fill="#FFFFFF" width="3.23" height="11.209"/>
	<polygon fill="#FFFFFF" points="960.598,21.52 957.369,21.52 957.268,12.31 960.598,15.45 	"/>
	<polygon fill="#FFFFFF" points="966.588,12.29 966.588,15.53 960.527,15.53 957.268,12.31 	"/>
	
		<rect x="987.068" y="37.901" transform="matrix(0.7073 -0.707 0.707 0.7073 258.6722 711.6916)" fill="#FFFFFF" width="3.231" height="11.21"/>
	<polygon fill="#FFFFFF" points="992.559,41.49 995.789,41.49 995.889,50.7 992.559,47.561 	"/>
	<polygon fill="#FFFFFF" points="986.568,50.71 986.568,47.48 992.629,47.48 995.889,50.7 	"/>
	
		<rect x="962.872" y="38.081" transform="matrix(0.7068 0.7074 -0.7074 0.7068 313.6873 -669.4785)" fill="#FFFFFF" width="3.23" height="11.211"/>
	<polygon fill="#FFFFFF" points="966.588,47.48 966.588,50.71 957.379,50.811 960.527,47.48 	"/>
	<polygon fill="#FFFFFF" points="957.369,41.49 960.598,41.49 960.598,47.561 957.379,50.811 	"/>
	
		<rect x="986.972" y="13.846" transform="matrix(-0.7069 -0.7073 0.7073 -0.7069 1673.6411 732.4606)" fill="#FFFFFF" width="3.23" height="11.21"/>
	<polygon fill="#FFFFFF" points="986.568,15.53 986.568,12.29 995.777,12.2 992.629,15.53 	"/>
	<polygon fill="#FFFFFF" points="995.789,21.52 992.559,21.52 992.559,15.45 995.777,12.2 	"/>
</g>
<g id="vtour_3_">
	<circle fill="#00B2DE" cx="1039.578" cy="31.5" r="31.5"/>
	<path fill="#FFFFFF" d="M1031.309,23.35c-4.531,4.53-4.531,11.871,0,16.39c4.529,4.53,11.869,4.53,16.4,0
		c4.529-4.53,4.529-11.87,0-16.39C1043.178,18.82,1035.838,18.82,1031.309,23.35z M1045.709,37.74c-3.42,3.42-8.971,3.42-12.391,0
		s-3.42-8.97,0-12.39c3.42-3.42,8.971-3.42,12.4,0C1049.129,28.77,1049.129,34.32,1045.709,37.74z"/>
	
		<rect x="1025.857" y="13.905" transform="matrix(-0.707 0.7073 -0.7073 -0.707 1767.6466 -693.3861)" fill="#FFFFFF" width="3.23" height="11.209"/>
	<polygon fill="#FFFFFF" points="1023.598,21.52 1020.369,21.52 1020.268,12.31 1023.598,15.45 	"/>
	<polygon fill="#FFFFFF" points="1029.588,12.29 1029.588,15.53 1023.527,15.53 1020.268,12.31 	"/>
	
		<rect x="1050.068" y="37.901" transform="matrix(0.7073 -0.707 0.707 0.7073 277.115 756.2298)" fill="#FFFFFF" width="3.231" height="11.21"/>
	<polygon fill="#FFFFFF" points="1055.559,41.49 1058.789,41.49 1058.889,50.7 1055.559,47.561 	"/>
	<polygon fill="#FFFFFF" points="1049.568,50.71 1049.568,47.48 1055.629,47.48 1058.889,50.7 	"/>
	
		<rect x="1025.872" y="38.081" transform="matrix(0.7068 0.7074 -0.7074 0.7068 332.1586 -714.0453)" fill="#FFFFFF" width="3.23" height="11.211"/>
	<polygon fill="#FFFFFF" points="1029.588,47.48 1029.588,50.71 1020.379,50.811 1023.527,47.48 	"/>
	<polygon fill="#FFFFFF" points="1020.369,41.49 1023.598,41.49 1023.598,47.561 1020.379,50.811 	"/>
	
		<rect x="1049.972" y="13.846" transform="matrix(-0.7069 -0.7073 0.7073 -0.7069 1781.1746 777.0226)" fill="#FFFFFF" width="3.23" height="11.21"/>
	<polygon fill="#FFFFFF" points="1049.568,15.53 1049.568,12.29 1058.777,12.2 1055.629,15.53 	"/>
	<polygon fill="#FFFFFF" points="1058.789,21.52 1055.559,21.52 1055.559,15.45 1058.777,12.2 	"/>
</g>
<g id="vtour_4_">
	<circle fill="#00B2DE" cx="1857.625" cy="31.5" r="31.5"/>
	<g>
		<defs>
			<circle id="SVGID_1_" cx="1857.625" cy="31.5" r="31.577"/>
		</defs>
		<clipPath id="SVGID_2_">
			<use xlink:href="#SVGID_1_"  overflow="visible"/>
		</clipPath>
		<g clip-path="url(#SVGID_2_)">
			<g>
				<polygon fill="#FFFFFF" points="1830.944,54.948 1829.131,53.438 1844.2,35.349 1851.604,41.519 1871.282,17.898 
					1873.094,19.408 1851.906,44.842 1844.502,38.672 				"/>
			</g>
			<g>
				<polygon fill="#FFFFFF" points="1838.348,61.116 1836.535,59.606 1845.05,49.385 1851.992,55.168 1864.344,40.341 
					1866.157,41.852 1852.295,58.49 1845.354,52.707 				"/>
			</g>
			<g>
				
					<rect x="1831.887" y="19.198" transform="matrix(0.7683 0.6401 -0.6401 0.7683 447.4015 -1165.0526)" fill="#FFFFFF" width="2.36" height="32.604"/>
			</g>
			<g>
				
					<rect x="1841.027" y="20.573" transform="matrix(0.7683 0.6401 -0.6401 0.7683 452.1343 -1169.9562)" fill="#FFFFFF" width="2.36" height="38.024"/>
			</g>
			<g>
				<path fill="#FFFFFF" d="M1871.434,19.56c-1.887-1.571-2.143-4.386-0.572-6.271c1.572-1.887,4.386-2.143,6.272-0.571
					c1.887,1.57,2.143,4.385,0.57,6.271C1876.133,20.875,1873.319,21.13,1871.434,19.56z M1875.623,14.529
					c-0.887-0.739-2.21-0.617-2.948,0.269c-0.739,0.888-0.618,2.21,0.27,2.949c0.886,0.739,2.209,0.618,2.948-0.269
					C1876.63,16.591,1876.511,15.268,1875.623,14.529z"/>
			</g>
			<g>
				<path fill="#FFFFFF" d="M1864.595,41.884c-1.886-1.572-2.144-4.386-0.571-6.272c1.57-1.887,4.385-2.143,6.271-0.572
					c1.886,1.572,2.143,4.386,0.571,6.273C1869.294,43.199,1866.48,43.454,1864.595,41.884z M1868.785,36.854
					c-0.888-0.739-2.211-0.62-2.949,0.269c-0.738,0.887-0.617,2.21,0.27,2.947c0.887,0.739,2.207,0.619,2.946-0.268
					C1869.792,38.915,1869.672,37.593,1868.785,36.854z"/>
			</g>
			<g>
				<path fill="#FFFFFF" d="M1853.499,26.028c-1.885-1.571-2.143-4.385-0.571-6.271c1.573-1.886,4.387-2.142,6.274-0.571
					c1.886,1.572,2.143,4.384,0.57,6.271C1858.2,27.344,1855.385,27.6,1853.499,26.028z M1857.69,20.999
					c-0.888-0.739-2.209-0.618-2.948,0.268c-0.739,0.887-0.619,2.21,0.269,2.949c0.886,0.739,2.209,0.618,2.948-0.268
					C1858.697,23.061,1858.578,21.737,1857.69,20.999z"/>
			</g>
			<g>
				<path fill="#FFFFFF" d="M1842.845,23.763c-1.888-1.571-2.144-4.385-0.572-6.271c1.572-1.887,4.386-2.143,6.272-0.571
					c1.887,1.572,2.143,4.385,0.572,6.271C1847.545,25.079,1844.73,25.335,1842.845,23.763z M1847.035,18.733
					c-0.888-0.739-2.21-0.618-2.948,0.27c-0.74,0.886-0.619,2.209,0.268,2.949c0.887,0.738,2.211,0.618,2.948-0.269
					C1848.042,20.794,1847.921,19.474,1847.035,18.733z"/>
			</g>
		</g>
	</g>
</g>
<g id="undergrad-research_1_">
	<circle fill="#00B2DE" cx="850.578" cy="31.5" r="31.5"/>
	<path fill="#FFFFFF" d="M857.639,35.01c-1.461,2.57-4.211,4.311-7.381,4.311c-4.68,0-8.48-3.8-8.48-8.48
		c0-2.77,1.33-5.21,3.381-6.76l-2.211-2.63c-2.799,2.18-4.6,5.57-4.6,9.39c0,6.58,5.33,11.91,11.91,11.91
		c5.111,0,9.451-3.22,11.15-7.74H857.639L857.639,35.01z"/>
	
		<rect x="843.28" y="13.778" transform="matrix(-0.7394 0.6732 -0.6732 -0.7394 1484.6399 -531.8005)" fill="#FFFFFF" width="3.909" height="15.261"/>
	
		<rect x="856.638" y="26.436" transform="matrix(0.0025 1 -1 0.0025 890.5186 -824.6049)" fill="#FFFFFF" width="3.91" height="15.27"/>
	
		<rect x="835.664" y="11.189" transform="matrix(-0.7393 0.6734 -0.6734 -0.7393 1465.7375 -541.139)" fill="#FFFFFF" width="3.91" height="3.94"/>
	<path fill="#FFFFFF" d="M850.119,45.57c3.189,0,5.969,1.77,7.42,4.38h3.76c-1.67-4.55-6.041-7.81-11.17-7.81
		c-5.111,0-9.451,3.22-11.15,7.739h3.77C844.197,47.301,846.947,45.57,850.119,45.57z"/>
</g>
<g id="save_1_">
	<circle fill="#EA8A23" cx="787.578" cy="31.5" r="31.5"/>
	<path fill="none" stroke="#FFFFFF" stroke-width="2.5" stroke-miterlimit="10" d="M799.607,44.301V16.95
		c0-2.84-2.299-5.14-5.139-5.14h-22.6c2.84,0,5.139,2.3,5.139,5.14v27.351c0,2.84,2.301,5.14,5.141,5.14"/>
	<path fill="none" stroke="#FFFFFF" stroke-width="2.5" stroke-miterlimit="10" d="M771.857,11.81c-2.84,0-5.139,2.3-5.139,5.14
		h10.27"/>
	<path fill="none" stroke="#FFFFFF" stroke-width="2.5" stroke-miterlimit="10" d="M804.738,49.44c2.84,0,5.141-2.3,5.141-5.13
		h-22.602c0,2.84-2.299,5.14-5.139,5.14h22.6V49.44z"/>
	<line fill="none" stroke="#FFFFFF" stroke-width="2.5" stroke-miterlimit="10" x1="781.369" y1="19.91" x2="795.348" y2="19.91"/>
	<line fill="none" stroke="#FFFFFF" stroke-width="2.5" stroke-miterlimit="10" x1="781.369" y1="25.78" x2="795.348" y2="25.78"/>
	<line fill="none" stroke="#FFFFFF" stroke-width="2.5" stroke-miterlimit="10" x1="781.369" y1="31.64" x2="795.348" y2="31.64"/>
	<line fill="none" stroke="#FFFFFF" stroke-width="2.5" stroke-miterlimit="10" x1="781.369" y1="37.5" x2="795.348" y2="37.5"/>
</g>
<g id="save_2_">
	<circle fill="#C4197F" cx="1605.826" cy="31.5" r="31.5"/>
	<path fill="none" stroke="#FFFFFF" stroke-width="2.5" stroke-miterlimit="10" d="M1617.855,44.301V16.95
		c0-2.84-2.299-5.14-5.139-5.14h-22.6c2.84,0,5.139,2.3,5.139,5.14v27.351c0,2.84,2.301,5.139,5.141,5.139"/>
	<path fill="none" stroke="#FFFFFF" stroke-width="2.5" stroke-miterlimit="10" d="M1590.105,11.81c-2.84,0-5.139,2.3-5.139,5.14
		h10.27"/>
	<path fill="none" stroke="#FFFFFF" stroke-width="2.5" stroke-miterlimit="10" d="M1622.986,49.439c2.84,0,5.141-2.299,5.141-5.129
		h-22.602c0,2.84-2.299,5.139-5.139,5.139h22.6V49.439z"/>
	
		<line fill="none" stroke="#FFFFFF" stroke-width="2.5" stroke-miterlimit="10" x1="1599.617" y1="19.91" x2="1613.596" y2="19.91"/>
	
		<line fill="none" stroke="#FFFFFF" stroke-width="2.5" stroke-miterlimit="10" x1="1599.617" y1="25.78" x2="1613.596" y2="25.78"/>
	
		<line fill="none" stroke="#FFFFFF" stroke-width="2.5" stroke-miterlimit="10" x1="1599.617" y1="31.64" x2="1613.596" y2="31.64"/>
	<line fill="none" stroke="#FFFFFF" stroke-width="2.5" stroke-miterlimit="10" x1="1599.617" y1="37.5" x2="1613.596" y2="37.5"/>
</g>
<g id="save_3_">
	<circle fill="#78BC43" cx="1668.826" cy="31.5" r="31.5"/>
	<path fill="none" stroke="#FFFFFF" stroke-width="2.5" stroke-miterlimit="10" d="M1680.855,44.301V16.95
		c0-2.84-2.299-5.14-5.139-5.14h-22.6c2.84,0,5.139,2.3,5.139,5.14v27.351c0,2.84,2.301,5.139,5.141,5.139"/>
	<path fill="none" stroke="#FFFFFF" stroke-width="2.5" stroke-miterlimit="10" d="M1653.105,11.81c-2.84,0-5.139,2.3-5.139,5.14
		h10.27"/>
	<path fill="none" stroke="#FFFFFF" stroke-width="2.5" stroke-miterlimit="10" d="M1685.986,49.439c2.84,0,5.141-2.299,5.141-5.129
		h-22.602c0,2.84-2.299,5.139-5.139,5.139h22.6V49.439z"/>
	
		<line fill="none" stroke="#FFFFFF" stroke-width="2.5" stroke-miterlimit="10" x1="1662.617" y1="19.91" x2="1676.596" y2="19.91"/>
	
		<line fill="none" stroke="#FFFFFF" stroke-width="2.5" stroke-miterlimit="10" x1="1662.617" y1="25.78" x2="1676.596" y2="25.78"/>
	
		<line fill="none" stroke="#FFFFFF" stroke-width="2.5" stroke-miterlimit="10" x1="1662.617" y1="31.64" x2="1676.596" y2="31.64"/>
	<line fill="none" stroke="#FFFFFF" stroke-width="2.5" stroke-miterlimit="10" x1="1662.617" y1="37.5" x2="1676.596" y2="37.5"/>
</g>
<g id="save_4_">
	<circle fill="#78BC43" cx="1794.625" cy="31.5" r="31.5"/>
	<g>
		<g>
			<polygon fill="#FFFFFF" points="1805.571,37.487 1773.067,37.439 1773.067,35.493 1805.636,35.493 1816.184,25.121 
				1816.184,27.27 			"/>
		</g>
		<g>
			<polygon fill="#FFFFFF" points="1805.571,41.37 1773.067,41.37 1773.067,39.424 1805.571,39.424 1816.184,29.451 1816.184,31.51 
							"/>
		</g>
		<g>
			<path fill="#FFFFFF" d="M1792.894,28.718l-1.23,1.467c0.555-0.074,0.99-0.294,1.307-0.671l0.018-0.021
				C1793.277,29.148,1793.284,28.928,1792.894,28.718z"/>
			<path fill="#FFFFFF" d="M1793.34,26.151c-0.281,0.335-0.311,0.545,0.09,0.754l1.196-1.425c-0.565,0.063-0.986,0.314-1.268,0.65
				L1793.34,26.151z"/>
			<path fill="#FFFFFF" d="M1783.4,22.845l-10.333,10.612h32.546l10.57-10.617L1783.4,22.845z M1796.291,26.294
				c-0.182-0.282-0.448-0.502-0.781-0.618l-1.336,1.592c1.232,0.43,1.376,1.069,0.392,2.242l-0.018,0.021
				c-0.984,1.173-2.518,1.928-3.952,2.064l-0.87,1.037h-1.089l0.887-1.058c-0.804-0.115-1.385-0.471-1.638-0.994l1.82-1.195
				c0.205,0.431,0.482,0.724,0.995,0.849l1.397-1.666c-1.166-0.408-1.435-0.974-0.389-2.22l0.018-0.021
				c0.967-1.153,2.489-1.918,3.923-2.054l0.51-0.608h1.09l-0.536,0.639c0.664,0.094,1.064,0.367,1.306,0.765L1796.291,26.294z"/>
		</g>
	</g>
</g>
<g id="read-principles_1_">
	<circle fill="#EA8A23" cx="724.578" cy="31.5" r="31.5"/>
	<path fill="#FFFFFF" d="M724.578,50.26l-17.33-7.02V13.89l17.221,6.78l17.439-6.77v29.34L724.578,50.26z M710.258,41.21l14.32,5.8
		l14.32-5.8V18.29l-14.43,5.6l-14.201-5.59L710.258,41.21L710.258,41.21z"/>
	<rect x="722.959" y="22.28" fill="#FFFFFF" width="3.01" height="26.36"/>
	<polygon fill="#FFFFFF" points="720.008,28.89 720.008,25.59 713.039,22.92 713.018,26.14 	"/>
	<polygon fill="#FFFFFF" points="720.008,35.53 720.008,32.24 713.039,29.56 713.018,32.79 	"/>
	<polygon fill="#FFFFFF" points="720.008,42.18 720.008,38.881 713.039,36.21 713.018,39.43 	"/>
	<polygon fill="#FFFFFF" points="728.719,28.89 728.719,25.59 735.688,22.92 735.719,26.14 	"/>
	<polygon fill="#FFFFFF" points="728.719,35.53 728.719,32.24 735.688,29.56 735.719,32.79 	"/>
	<polygon fill="#FFFFFF" points="728.719,42.18 728.719,38.881 735.688,36.21 735.719,39.43 	"/>
</g>
<g id="read-principles_2_">
	<circle fill="#C4197F" cx="2550.487" cy="31.5" r="31.5"/>
	<path fill="#FFFFFF" d="M2550.487,50.26l-17.33-7.02V13.89l17.221,6.78l17.439-6.77v29.34L2550.487,50.26z M2536.167,41.21
		l14.32,5.8l14.32-5.8V18.29l-14.43,5.6l-14.201-5.59L2536.167,41.21L2536.167,41.21z"/>
	<rect x="2548.868" y="22.28" fill="#FFFFFF" width="3.01" height="26.36"/>
	<polygon fill="#FFFFFF" points="2545.917,28.89 2545.917,25.59 2538.948,22.92 2538.927,26.14 	"/>
	<polygon fill="#FFFFFF" points="2545.917,35.53 2545.917,32.24 2538.948,29.56 2538.927,32.79 	"/>
	<polygon fill="#FFFFFF" points="2545.917,42.18 2545.917,38.881 2538.948,36.21 2538.927,39.43 	"/>
	<polygon fill="#FFFFFF" points="2554.628,28.89 2554.628,25.59 2561.597,22.92 2561.628,26.14 	"/>
	<polygon fill="#FFFFFF" points="2554.628,35.53 2554.628,32.24 2561.597,29.56 2561.628,32.79 	"/>
	<polygon fill="#FFFFFF" points="2554.628,42.18 2554.628,38.881 2561.597,36.21 2561.628,39.43 	"/>
</g>
<g id="read-principles_3_">
	<circle fill="#00B2DE" cx="2613.487" cy="31.5" r="31.5"/>
	<path fill="#FFFFFF" d="M2613.487,50.26l-17.33-7.02V13.89l17.221,6.78l17.439-6.77v29.34L2613.487,50.26z M2599.167,41.21
		l14.32,5.8l14.32-5.8V18.29l-14.43,5.6l-14.201-5.59L2599.167,41.21L2599.167,41.21z"/>
	<rect x="2611.868" y="22.28" fill="#FFFFFF" width="3.01" height="26.36"/>
	<polygon fill="#FFFFFF" points="2608.917,28.89 2608.917,25.59 2601.948,22.92 2601.927,26.14 	"/>
	<polygon fill="#FFFFFF" points="2608.917,35.53 2608.917,32.24 2601.948,29.56 2601.927,32.79 	"/>
	<polygon fill="#FFFFFF" points="2608.917,42.18 2608.917,38.881 2601.948,36.21 2601.927,39.43 	"/>
	<polygon fill="#FFFFFF" points="2617.628,28.89 2617.628,25.59 2624.597,22.92 2624.628,26.14 	"/>
	<polygon fill="#FFFFFF" points="2617.628,35.53 2617.628,32.24 2624.597,29.56 2624.628,32.79 	"/>
	<polygon fill="#FFFFFF" points="2617.628,42.18 2617.628,38.881 2624.597,36.21 2624.628,39.43 	"/>
</g>
<g id="orientation_1_">
	<circle fill="#78BC43" cx="661.568" cy="31.5" r="31.5"/>
	<path fill="#FFFFFF" d="M656.648,10.4c-2.48,2.479-2.48,6.51,0,8.99s6.51,2.48,8.99,0c2.49-2.48,2.49-6.51,0-8.99
		C663.158,7.91,659.139,7.91,656.648,10.4z M663.709,17.45c-1.41,1.41-3.701,1.41-5.111,0s-1.41-3.7,0-5.11
		c1.41-1.41,3.701-1.41,5.111,0C665.119,13.75,665.119,16.04,663.709,17.45z M656.838,19.39l-3.469,7.82h15.629l-3.58-7.82
		l-2.209,1.58l1.6,3.52l-7.16-0.06l1.65-3.51"/>
	<path fill="#FFFFFF" d="M667.908,32.471c-2.48,2.479-2.48,6.51,0,9c2.48,2.479,6.51,2.479,8.99,0c2.48-2.48,2.48-6.511,0-9
		C674.418,29.99,670.389,29.99,667.908,32.471z M674.969,39.53c-1.41,1.41-3.701,1.41-5.111,0s-1.41-3.7,0-5.12
		c1.41-1.41,3.701-1.41,5.121,0C676.379,35.83,676.379,38.12,674.969,39.53z M668.098,41.471l-3.469,7.819h15.629l-3.58-7.819
		l-2.209,1.58l1.6,3.52l-7.16-0.061l1.65-3.51"/>
	<path fill="#FFFFFF" d="M645.469,32.471c-2.48,2.479-2.48,6.51,0,9c2.479,2.479,6.51,2.479,9,0c2.479-2.48,2.479-6.511,0-9
		C651.988,29.99,647.959,29.99,645.469,32.471z M652.527,39.53c-1.408,1.41-3.699,1.41-5.109,0s-1.41-3.7,0-5.12
		c1.41-1.41,3.701-1.41,5.109,0C653.938,35.83,653.938,38.12,652.527,39.53z M645.668,41.471l-3.471,7.819h15.631l-3.58-7.819
		l-2.209,1.58l1.6,3.52l-7.16-0.061l1.65-3.51"/>
</g>
<g id="org-chart_1_">
	<circle fill="#78BC43" cx="598.568" cy="31.5" r="31.5"/>
	<path fill="#FFFFFF" d="M590.188,14.61v12.48h16.471V14.61H590.188z M603.928,24.68h-11.01v-7.65h11.01V24.68z"/>
	<path fill="#FFFFFF" d="M575.938,32.77v12.48h16.471V32.77H575.938z M589.678,42.83h-11.01v-7.65h11.01V42.83z"/>
	<path fill="#FFFFFF" d="M604.488,32.77v12.48h16.471V32.77H604.488z M618.229,42.83h-11.01v-7.65h11.01V42.83L618.229,42.83z"/>
	<rect x="597.129" y="27.09" fill="#FFFFFF" width="2.6" height="13.22"/>
	<rect x="590.338" y="37.71" fill="#FFFFFF" width="16.17" height="2.601"/>
</g>
<g id="menu_1_">
	<circle fill="#EA8A23" cx="535.568" cy="31.5" r="31.5"/>
	<rect x="526.107" y="14.98" fill="#FFFFFF" width="3.012" height="38.32"/>
	<polygon fill="#FFFFFF" points="533.309,26.73 522.018,26.73 522.018,14.98 525.027,14.98 525.027,23.72 530.299,23.72 
		530.299,14.98 533.309,14.98 	"/>
	<path fill="#FFFFFF" d="M545.688,53.36h-8.189V15.8l8.189-2.97V53.36z M540.498,50.35h2.18V17.12l-2.18,0.79V50.35z"/>
	<rect x="538.998" y="33.051" fill="#FFFFFF" width="5.18" height="3.01"/>
</g>
<g id="menu_4_">
	<circle fill="#EA8A23" cx="2298.487" cy="31.781" r="31.5"/>
	<g>
		<rect x="2285.284" y="30.196" fill="#FFFFFF" width="26.405" height="3.17"/>
		<rect x="2296.9" y="18.579" fill="#FFFFFF" width="3.171" height="26.405"/>
	</g>
</g>
<g id="menu_5_">
	<circle fill="#00B2DE" cx="2361.487" cy="31.781" r="31.5"/>
	<g>
		<rect x="2348.283" y="30.195" fill="#FFFFFF" width="26.407" height="3.171"/>
		<rect x="2359.9" y="18.578" fill="#FFFFFF" width="3.172" height="26.407"/>
	</g>
</g>
<g id="menu_6_">
	<circle fill="#C4197F" cx="2424.487" cy="31.781" r="31.5"/>
	<g>
		<rect x="2411.284" y="30.196" fill="#FFFFFF" width="26.405" height="3.17"/>
		<rect x="2422.9" y="18.579" fill="#FFFFFF" width="3.171" height="26.405"/>
	</g>
</g>
<g id="menu_7_">
	<circle fill="#78BC43" cx="2487.487" cy="31.781" r="31.5"/>
	<g>
		<rect x="2474.284" y="30.196" fill="#FFFFFF" width="26.405" height="3.17"/>
		<rect x="2485.9" y="18.579" fill="#FFFFFF" width="3.171" height="26.405"/>
	</g>
</g>
<g id="menu_2_">
	<circle fill="#642667" cx="1983.522" cy="31.5" r="31.5"/>
	<path fill="#FFFFFF" d="M1996.729,38.889l-8.265,2.756l-20.704-29.572l3.277-2.608L1996.729,38.889z M1989.506,38.129l2.2-0.733
		l-20.986-25.769l-0.924,0.732L1989.506,38.129z"/>
	<g>
		<path fill="#FFFFFF" d="M1989.462,55.021c-1.581,0-3.256-0.197-4.98-0.586l-3.081-0.695l2.725-1.597
			c0.107-0.064,2.771-1.703,3.589-5.423c0.664-3.022,3.303-5.217,6.273-5.217c1.942,0,3.729,0.932,5.032,2.625
			c1.391,1.81,1.627,3.992,0.645,5.987C1998.174,53.143,1994.265,55.021,1989.462,55.021z M1987.54,52.423
			c0.657,0.07,1.299,0.104,1.922,0.104c4.602,0,7.167-1.893,7.965-3.513c0.555-1.127,0.418-2.322-0.384-3.365
			c-0.832-1.081-1.889-1.651-3.056-1.651c-1.81,0-3.423,1.37-3.838,3.257C1989.639,49.578,1988.549,51.276,1987.54,52.423z"/>
	</g>
</g>
<g id="menu_3_">
	<circle fill="#C4197F" cx="2046.522" cy="31.5" r="31.5"/>
	<path fill="#FFFFFF" d="M2059.729,38.889l-8.265,2.756l-20.704-29.572l3.277-2.608L2059.729,38.889z M2052.506,38.129l2.2-0.733
		l-20.986-25.769l-0.924,0.732L2052.506,38.129z"/>
	<g>
		<path fill="#FFFFFF" d="M2052.462,55.021c-1.581,0-3.256-0.197-4.98-0.586l-3.081-0.695l2.725-1.597
			c0.107-0.064,2.771-1.703,3.589-5.423c0.664-3.022,3.303-5.217,6.273-5.217c1.942,0,3.729,0.932,5.032,2.625
			c1.391,1.81,1.627,3.992,0.645,5.987C2061.174,53.143,2057.265,55.021,2052.462,55.021z M2050.54,52.423
			c0.657,0.07,1.299,0.104,1.922,0.104c4.602,0,7.167-1.893,7.965-3.513c0.555-1.127,0.418-2.322-0.384-3.365
			c-0.832-1.081-1.889-1.651-3.056-1.651c-1.81,0-3.423,1.37-3.838,3.257C2052.639,49.578,2051.549,51.276,2050.54,52.423z"/>
	</g>
</g>
<g id="mailing-list_1_">
	<circle fill="#EA8A23" cx="472.568" cy="31.5" r="31.5"/>
	<path fill="#FFFFFF" d="M491.879,42.99h-38.611V19.63l19.3,15.58l19.311-15.58V42.99L491.879,42.99z M455.528,40.73h34.091V24.37
		l-17.051,13.75l-17.04-13.75V40.73z"/>
	<rect x="453.258" y="19.63" fill="#FFFFFF" width="38.611" height="2.65"/>
</g>
<g id="jobs_1_">
	<circle fill="#DCB226" cx="409.568" cy="31.5" r="31.5"/>
	<path fill="#FFFFFF" d="M414.928,48.35c-11.68,0-21.57-6.819-24.82-12.77l-0.87-1.6l2.97-0.95c-0.35-3.93-0.57-15.61,8.43-19.6
		c5.77-2.55,11.97-2.28,16.58,0.74c3.67,2.4,8.03,7.61,7.979,18.81c0,0.46-0.21,0.87-0.529,1.14l1.37,1.19
		c0.409,0.359,3.97,3.58,3.02,7.15c-0.69,2.609-3.42,4.35-8.32,5.329C418.758,48.17,416.818,48.35,414.928,48.35z M393.768,35.68
		c4.23,5.57,14.92,11.42,26.37,9.141c3.51-0.7,5.65-1.811,6-3.141c0.25-0.91-0.33-2.01-0.97-2.869c-5.9,6.51-19.78,2.439-20.41,2.25
		c-0.8-0.24-1.25-1.08-1.01-1.87c0.24-0.79,1.08-1.25,1.87-1.011c0.14,0.041,14.35,4.2,18.1-2.479l0.86-1.53
		c-0.25,0.19-0.561,0.301-0.91,0.301c-0.83,0-1.5-0.681-1.5-1.511c0.029-7.79-2.25-13.42-6.61-16.27c-3.75-2.45-8.88-2.64-13.71-0.5
		c-8.54,3.78-6.54,17.53-6.52,17.67l0.19,1.271L393.768,35.68z"/>
	<path fill="#FFFFFF" d="M405.458,26.81c-0.56,0-1.1-0.31-1.36-0.85c-2.27-4.7-6.22-8.64-6.26-8.68c-0.59-0.58-0.6-1.54-0.01-2.13
		c0.58-0.59,1.54-0.6,2.13-0.01c0.18,0.18,4.36,4.35,6.86,9.51c0.36,0.75,0.05,1.65-0.7,2.01
		C405.898,26.76,405.678,26.81,405.458,26.81z"/>
	<path fill="#FFFFFF" d="M411.998,26.81c-0.71,0-1.34-0.5-1.47-1.22c-0.93-4.81-6.65-10.33-6.71-10.39
		c-0.6-0.57-0.62-1.53-0.05-2.13c0.57-0.6,1.53-0.62,2.13-0.05c0.26,0.25,6.47,6.25,7.58,11.99c0.16,0.81-0.38,1.6-1.19,1.76
		C412.188,26.8,412.098,26.81,411.998,26.81z"/>
	<path fill="#FFFFFF" d="M417.079,25c-0.71,0-1.341-0.5-1.48-1.229c-0.84-4.521-5.02-8.521-5.06-8.561
		c-0.6-0.57-0.63-1.52-0.06-2.13c0.57-0.6,1.52-0.63,2.13-0.06c0.2,0.19,4.93,4.7,5.959,10.2c0.15,0.82-0.39,1.6-1.199,1.75
		C417.258,24.99,417.168,25,417.079,25z"/>
</g>
<g id="jobs_2_">
	<circle fill="#EA8A23" cx="1102.634" cy="31.5" r="31.5"/>
	<path fill="#FFFFFF" d="M1107.994,48.35c-11.681,0-21.57-6.82-24.82-12.77l-0.87-1.6l2.97-0.951
		c-0.35-3.929-0.57-15.609,8.43-19.599c5.771-2.55,11.971-2.28,16.58,0.74c3.67,2.4,8.031,7.61,7.98,18.81
		c0,0.459-0.211,0.869-0.529,1.139l1.369,1.191c0.41,0.359,3.971,3.58,3.02,7.15c-0.689,2.609-3.42,4.35-8.32,5.328
		C1111.824,48.17,1109.883,48.35,1107.994,48.35z M1086.834,35.68c4.229,5.57,14.92,11.42,26.369,9.141
		c3.51-0.701,5.65-1.811,6-3.141c0.25-0.91-0.33-2.01-0.969-2.869c-5.9,6.51-19.781,2.439-20.41,2.25
		c-0.801-0.24-1.25-1.08-1.011-1.871c0.24-0.789,1.08-1.25,1.87-1.01c0.141,0.041,14.35,4.199,18.1-2.48l0.861-1.529
		c-0.25,0.189-0.561,0.301-0.91,0.301c-0.83,0-1.5-0.682-1.5-1.512c0.029-7.789-2.25-13.419-6.611-16.269
		c-3.75-2.45-8.879-2.64-13.709-0.5c-8.541,3.78-6.541,17.53-6.521,17.669l0.19,1.271L1086.834,35.68z"/>
	<path fill="#FFFFFF" d="M1098.523,26.81c-0.56,0-1.1-0.31-1.359-0.85c-2.271-4.7-6.221-8.64-6.26-8.68
		c-0.591-0.58-0.601-1.54-0.011-2.13c0.58-0.59,1.54-0.6,2.13-0.01c0.18,0.18,4.36,4.35,6.86,9.51c0.36,0.75,0.05,1.65-0.7,2.01
		C1098.964,26.76,1098.744,26.81,1098.523,26.81z"/>
	<path fill="#FFFFFF" d="M1105.063,26.81c-0.71,0-1.34-0.5-1.47-1.22c-0.93-4.81-6.65-10.33-6.71-10.39
		c-0.601-0.57-0.62-1.53-0.05-2.13c0.57-0.6,1.529-0.62,2.13-0.05c0.26,0.25,6.47,6.25,7.579,11.99c0.16,0.81-0.379,1.6-1.189,1.76
		C1105.254,26.8,1105.164,26.81,1105.063,26.81z"/>
	<path fill="#FFFFFF" d="M1110.145,25c-0.711,0-1.342-0.5-1.48-1.229c-0.84-4.521-5.021-8.521-5.061-8.561
		c-0.6-0.57-0.63-1.52-0.061-2.13c0.57-0.6,1.521-0.63,2.131-0.06c0.199,0.19,4.93,4.7,5.959,10.2c0.15,0.82-0.389,1.6-1.199,1.75
		C1110.324,24.99,1110.234,25,1110.145,25z"/>
</g>
<g id="jobs_3_">
	<circle fill="#78BC43" cx="1165.633" cy="31.5" r="31.5"/>
	<path fill="#FFFFFF" d="M1170.993,48.35c-11.681,0-21.57-6.82-24.82-12.77l-0.87-1.6l2.97-0.951
		c-0.35-3.929-0.57-15.609,8.43-19.599c5.771-2.55,11.971-2.28,16.58,0.74c3.67,2.4,8.031,7.61,7.98,18.81
		c0,0.459-0.211,0.869-0.529,1.139l1.369,1.191c0.41,0.359,3.971,3.58,3.02,7.15c-0.689,2.609-3.42,4.35-8.32,5.328
		C1174.823,48.17,1172.882,48.35,1170.993,48.35z M1149.833,35.68c4.229,5.57,14.92,11.42,26.369,9.141
		c3.51-0.701,5.65-1.811,6-3.141c0.25-0.91-0.33-2.01-0.969-2.869c-5.9,6.51-19.781,2.439-20.41,2.25
		c-0.801-0.24-1.25-1.08-1.011-1.871c0.24-0.789,1.08-1.25,1.87-1.01c0.141,0.041,14.35,4.199,18.1-2.48l0.861-1.529
		c-0.25,0.189-0.561,0.301-0.91,0.301c-0.83,0-1.5-0.682-1.5-1.512c0.029-7.789-2.25-13.419-6.611-16.269
		c-3.75-2.45-8.879-2.64-13.709-0.5c-8.541,3.78-6.541,17.53-6.521,17.669l0.19,1.271L1149.833,35.68z"/>
	<path fill="#FFFFFF" d="M1161.522,26.81c-0.56,0-1.1-0.31-1.359-0.85c-2.271-4.7-6.221-8.64-6.26-8.68
		c-0.591-0.58-0.601-1.54-0.011-2.13c0.58-0.59,1.54-0.6,2.13-0.01c0.18,0.18,4.36,4.35,6.86,9.51c0.36,0.75,0.05,1.65-0.7,2.01
		C1161.963,26.76,1161.743,26.81,1161.522,26.81z"/>
	<path fill="#FFFFFF" d="M1168.062,26.81c-0.71,0-1.34-0.5-1.47-1.22c-0.93-4.81-6.65-10.33-6.71-10.39
		c-0.601-0.57-0.62-1.53-0.05-2.13c0.57-0.6,1.529-0.62,2.13-0.05c0.26,0.25,6.47,6.25,7.579,11.99c0.16,0.81-0.379,1.6-1.189,1.76
		C1168.253,26.8,1168.163,26.81,1168.062,26.81z"/>
	<path fill="#FFFFFF" d="M1173.144,25c-0.711,0-1.342-0.5-1.48-1.229c-0.84-4.521-5.021-8.521-5.061-8.561
		c-0.6-0.57-0.63-1.52-0.061-2.13c0.57-0.6,1.521-0.63,2.131-0.06c0.199,0.19,4.93,4.7,5.959,10.2c0.15,0.82-0.389,1.6-1.199,1.75
		C1173.323,24.99,1173.233,25,1173.144,25z"/>
</g>
<g id="jobs_4_">
	<circle fill="#C4197F" cx="1228.632" cy="31.5" r="31.5"/>
	<path fill="#FFFFFF" d="M1233.992,48.35c-11.681,0-21.57-6.82-24.82-12.77l-0.87-1.6l2.97-0.951
		c-0.35-3.929-0.57-15.609,8.43-19.599c5.771-2.55,11.971-2.28,16.58,0.74c3.67,2.4,8.031,7.61,7.98,18.81
		c0,0.459-0.211,0.869-0.529,1.139l1.369,1.191c0.41,0.359,3.971,3.58,3.02,7.15c-0.689,2.609-3.42,4.35-8.32,5.328
		C1237.822,48.17,1235.881,48.35,1233.992,48.35z M1212.832,35.68c4.229,5.57,14.92,11.42,26.369,9.141
		c3.51-0.701,5.65-1.811,6-3.141c0.25-0.91-0.33-2.01-0.969-2.869c-5.9,6.51-19.781,2.439-20.41,2.25
		c-0.801-0.24-1.25-1.08-1.011-1.871c0.24-0.789,1.08-1.25,1.87-1.01c0.141,0.041,14.35,4.199,18.1-2.48l0.861-1.529
		c-0.25,0.189-0.561,0.301-0.91,0.301c-0.83,0-1.5-0.682-1.5-1.512c0.029-7.789-2.25-13.419-6.611-16.269
		c-3.75-2.45-8.879-2.64-13.709-0.5c-8.541,3.78-6.541,17.53-6.521,17.669l0.19,1.271L1212.832,35.68z"/>
	<path fill="#FFFFFF" d="M1224.521,26.81c-0.56,0-1.1-0.31-1.359-0.85c-2.271-4.7-6.221-8.64-6.26-8.68
		c-0.591-0.58-0.601-1.54-0.011-2.13c0.58-0.59,1.54-0.6,2.13-0.01c0.18,0.18,4.36,4.35,6.86,9.51c0.36,0.75,0.05,1.65-0.7,2.01
		C1224.962,26.76,1224.742,26.81,1224.521,26.81z"/>
	<path fill="#FFFFFF" d="M1231.062,26.81c-0.71,0-1.34-0.5-1.47-1.22c-0.93-4.81-6.65-10.33-6.71-10.39
		c-0.601-0.57-0.62-1.53-0.05-2.13c0.57-0.6,1.529-0.62,2.13-0.05c0.26,0.25,6.47,6.25,7.579,11.99c0.16,0.81-0.379,1.6-1.189,1.76
		C1231.252,26.8,1231.162,26.81,1231.062,26.81z"/>
	<path fill="#FFFFFF" d="M1236.143,25c-0.711,0-1.342-0.5-1.48-1.229c-0.84-4.521-5.021-8.521-5.061-8.561
		c-0.6-0.57-0.63-1.52-0.061-2.13c0.57-0.6,1.521-0.63,2.131-0.06c0.199,0.19,4.93,4.7,5.959,10.2c0.15,0.82-0.389,1.6-1.199,1.75
		C1236.322,24.99,1236.232,25,1236.143,25z"/>
</g>
<g id="giving_1_">
	<circle fill="#78BC43" cx="346.568" cy="31.5" r="31.5"/>
	<path fill="#FFFFFF" d="M354.628,22.59c0,0,8.84-4.81,2.55-9.16c-5.73-3.96-9.52,9.08-9.52,9.08h-0.66c0,0-3.54-13.88-9.63-9.08
		c-5.31,4.19,2.86,9.08,2.86,9.08h-15.25v9.89h3.72V48.59h35.58V32.4h3.91v-9.8L354.628,22.59L354.628,22.59z M356.358,15.86
		c3.69,2.71-6.24,6.01-6.24,6.01S352.668,13.15,356.358,15.86z M338.088,16.19c2.71-4.19,6.36,5.67,6.36,5.67
		S336.118,19.24,338.088,16.19z M345.608,46.48h-14.57v-14.09h14.57V46.48z M362.108,46.48h-14.11v-14.09h14.11V46.48L362.108,46.48
		z M366.128,30.15h-38.83v-5.01h38.83V30.15z"/>
</g>
<g id="get-published_1_">
	<circle fill="#642667" cx="283.568" cy="31.5" r="31.5"/>
	<path fill="#FFFFFF" d="M283.548,50.641l-17.33-7.021V14.27l17.22,6.78l17.44-6.77v29.34L283.548,50.641z M269.228,41.6
		l14.32,5.801l14.32-5.801V18.68l-14.44,5.6l-14.2-5.59V41.6L269.228,41.6z"/>
	<polygon fill="#FFFFFF" points="278.998,28.89 278.998,25.59 272.028,22.92 272.008,26.14 	"/>
	<polygon fill="#FFFFFF" points="278.998,35.53 278.998,32.24 272.028,29.56 272.008,32.79 	"/>
	<polygon fill="#FFFFFF" points="278.998,42.18 278.998,38.881 272.028,36.21 272.008,39.43 	"/>
	<polygon fill="#FFFFFF" points="287.708,28.89 287.708,25.59 294.678,22.92 294.698,26.14 	"/>
	<polygon fill="#FFFFFF" points="287.708,35.53 287.708,32.24 294.678,29.56 294.698,32.79 	"/>
	<polygon fill="#FFFFFF" points="287.708,42.18 287.708,38.881 294.678,36.21 294.698,39.43 	"/>
	<rect x="281.938" y="22.67" fill="#FFFFFF" width="3.01" height="26.36"/>
</g>
<g id="deadlines_1_">
	<circle fill="#C4197F" cx="220.568" cy="31.5" r="31.5"/>
	<path fill="#FFFFFF" d="M235.818,48.11h-30.51V16.45h30.51V48.11L235.818,48.11z M208.048,45.25h25.03V19.3h-25.03V45.25z"/>
	<rect x="206.348" y="25.3" fill="#FFFFFF" width="28.31" height="2.86"/>
	<g enable-background="new    ">
		<path fill="#FFFFFF" d="M218.838,33.69l-1.79,0.42l-0.56-2.27l3.1-0.88h2.13v10.671h-2.89v-7.94H218.838z"/>
	</g>
</g>
<g id="contact_1_">
	<circle fill="#EA8A23" cx="157.558" cy="31.5" r="31.5"/>
	<path fill="none" stroke="#FFFFFF" stroke-width="3" stroke-miterlimit="10" d="M147.308,13.71c0,0-3.53,1.521-5.99,5.72
		c0,0-0.08,8.68,10.52,18.419c10.59,9.73,17.69,9.73,17.69,9.73s3.97-2.73,5.41-6.25l-8.13-6.08l-5.13,2.51l-10.64-10.5l2.35-5.04
		L147.308,13.71z"/>
</g>
<g id="clubs-orgs_1_">
	<circle fill="#642667" cx="94.558" cy="31.5" r="31.5"/>
	<path fill="#FFFFFF" d="M89.638,10.4c-2.48,2.479-2.48,6.51,0,8.99s6.51,2.48,8.99,0s2.48-6.51,0-8.99
		C96.148,7.92,92.128,7.92,89.638,10.4z M96.698,17.45c-1.41,1.41-3.7,1.41-5.11,0c-1.41-1.41-1.41-3.7,0-5.11
		c1.41-1.41,3.7-1.41,5.11,0C98.108,13.75,98.108,16.04,96.698,17.45z M89.828,19.39l-3.47,7.82h15.63l-3.58-7.82l-2.21,1.58
		l1.6,3.52l-7.16-0.06l1.65-3.51"/>
	<path fill="#FFFFFF" d="M100.898,32.471c-2.48,2.479-2.48,6.51,0,9c2.49,2.479,6.51,2.479,9,0c2.48-2.48,2.48-6.511,0-9
		C107.408,29.99,103.378,29.99,100.898,32.471z M107.948,39.53c-1.41,1.41-3.7,1.41-5.11,0c-1.41-1.41-1.41-3.7,0-5.12
		c1.41-1.41,3.7-1.41,5.12,0C109.368,35.83,109.368,38.12,107.948,39.53z M101.088,41.471l-3.47,7.819h15.63l-3.57-7.819l-2.21,1.58
		l1.6,3.52l-7.16-0.061l1.65-3.51"/>
	<path fill="#FFFFFF" d="M78.458,32.471c-2.48,2.479-2.48,6.51,0,9c2.48,2.489,6.51,2.479,9,0c2.48-2.48,2.48-6.511,0-9
		C84.978,29.99,80.948,29.99,78.458,32.471z M85.518,39.53c-1.41,1.41-3.7,1.41-5.11,0s-1.41-3.7,0-5.12c1.41-1.41,3.7-1.41,5.12,0
		C86.928,35.83,86.928,38.12,85.518,39.53z M78.648,41.471l-3.47,7.819h15.63l-3.58-7.819l-2.21,1.58l1.6,3.52l-7.16-0.061
		l1.65-3.51"/>
</g>
<g id="alumni_1_">
	<circle fill="#DCB226" cx="31.578" cy="31.5" r="31.5"/>
	<path fill="#FFFFFF" d="M18.338,46.93V16.08h26.84V46.9l-13.6-7.34L18.338,46.93z M31.578,36.48l10.67,5.76V18.93h-20.98v23.291
		L31.578,36.48z"/>
</g>
<g id="alumni_2_">
	<circle fill="#DCB226" cx="1542.826" cy="31.5" r="31.5"/>
	<g>
		<g>
			<path fill="#FFFFFF" d="M1538.731,52.414l-6.051-6.105l0.181-0.803c0.166-0.752,0.371-2.941-0.654-3.977
				c-0.867-0.875-2.559-0.762-3.825-0.51l-0.789,0.154l-5.907-5.963l25.235-25.003l6.075,6.131l-0.438,0.946
				c-0.008,0.017-1.081,2.457,0.354,3.904c1.468,1.482,4.067,0.503,4.093,0.493l0.923-0.367l6.04,6.095L1538.731,52.414z
				 M1535.929,45.324l2.822,2.848l20.973-20.781l-2.6-2.624c-1.472,0.346-4.273,0.624-6.345-1.466
				c-2.068-2.088-1.713-4.8-1.306-6.254l-2.572-2.596l-20.974,20.78l2.684,2.709c2.493-0.34,4.417,0.156,5.727,1.479
				C1536.132,41.229,1536.093,43.939,1535.929,45.324z"/>
		</g>
		<g>
			<g>
				
					<rect x="1542.216" y="20.737" transform="matrix(0.7038 0.7104 -0.7104 0.7038 473.0812 -1090.2078)" fill="#FFFFFF" width="3.505" height="3"/>
			</g>
			<g>
				
					<rect x="1546.187" y="24.745" transform="matrix(0.7038 0.7104 -0.7104 0.7038 477.1039 -1091.8416)" fill="#FFFFFF" width="3.505" height="3"/>
			</g>
			<g>
				
					<rect x="1550.158" y="28.752" transform="matrix(0.7038 0.7104 -0.7104 0.7038 481.2371 -1093.5808)" fill="#FFFFFF" width="3.505" height="3"/>
			</g>
		</g>
	</g>
</g>
<g>
	<circle fill="#C4197F" cx="1731.726" cy="31.501" r="31.399"/>
	<ellipse fill="#FFFFFF" cx="1739.617" cy="18.574" rx="2.871" ry="2.842"/>
	<ellipse fill="#FFFFFF" cx="1726.564" cy="12.649" rx="3.115" ry="3.083"/>
	<path fill="#FFFFFF" d="M1745.334,33.675l-4.05-2.617l-0.684-0.437l2.242,8.471l-1.244,0.25l2.351,10.217l-1.542,0.062
		l-3.363-9.594l-2.056-0.125l-4.175,9.158l-1.621-0.742l3.053-8.977l-1.059-0.25l1.808-5.668l-2.431-4.735l-3.634-1.556
		l-1.226-1.247l-1.682,5.911l2.368,8.045v10.092h-2.553l-0.501-9.221l-1.619-2.805l-1.32,3.863l-5.283,8.162l-1.807-1.309
		l3.925-7.85l-0.062-7.912l0.811-1.932l-3.178-6.292l4.36-7.537l2.929-1.371c0.871,0.747,2.243,0.748,2.243,0.748
		c0.435,1.06,1.807,2.057,1.807,2.057l1.555,6.604l3.553,1.682l1.37-3.613l3.114-1.62c0.998,0.685,2.242,0.56,2.242,0.56
		l1.746,2.118l1.309,5.545l3.113,3.021L1745.334,33.675z"/>
</g>
<g>
	<circle fill="#642667" cx="1291.53" cy="31.5" r="31.399"/>
	<g>
		<path fill="none" stroke="#FFFFFF" stroke-width="3" stroke-miterlimit="10" d="M1291.531,13.005
			c-7.039,0-12.744,5.705-12.744,12.742c0,0.88,0.088,1.74,0.256,2.569l0,0c1.023,6.859,12.488,21.436,12.488,21.436
			s11.463-14.576,12.484-21.436c0.17-0.829,0.26-1.689,0.26-2.569C1304.275,18.71,1298.568,13.005,1291.531,13.005z"/>
		<path fill="#FFFFFF" d="M1291.531,17.226c-5.006,0-9.064,4.059-9.064,9.063c0,5.006,4.059,9.064,9.064,9.064
			s9.064-4.059,9.064-9.064C1300.596,21.284,1296.537,17.226,1291.531,17.226z M1291.531,32.746c-3.566,0-6.457-2.891-6.457-6.457
			s2.891-6.456,6.457-6.456s6.457,2.89,6.457,6.456S1295.098,32.746,1291.531,32.746z"/>
	</g>
</g>
<g>
	<circle fill="#78BC43" cx="1354.329" cy="31.5" r="31.399"/>
	<g>
		<path fill="none" stroke="#FFFFFF" stroke-width="3" stroke-miterlimit="10" d="M1354.33,13.005
			c-7.039,0-12.744,5.705-12.744,12.742c0,0.88,0.088,1.74,0.256,2.569l0,0c1.023,6.859,12.488,21.436,12.488,21.436
			s11.463-14.576,12.484-21.436c0.17-0.829,0.26-1.689,0.26-2.569C1367.074,18.71,1361.367,13.005,1354.33,13.005z"/>
		<path fill="#FFFFFF" d="M1354.33,17.226c-5.006,0-9.064,4.059-9.064,9.063c0,5.006,4.059,9.064,9.064,9.064
			s9.064-4.059,9.064-9.064C1363.395,21.284,1359.336,17.226,1354.33,17.226z M1354.33,32.746c-3.566,0-6.457-2.891-6.457-6.457
			s2.891-6.456,6.457-6.456s6.457,2.89,6.457,6.456S1357.896,32.746,1354.33,32.746z"/>
	</g>
</g>
<g>
	<circle fill="#C4197F" cx="1417.128" cy="31.5" r="31.399"/>
	<g>
		<path fill="none" stroke="#FFFFFF" stroke-width="3" stroke-miterlimit="10" d="M1417.129,13.005
			c-7.039,0-12.744,5.705-12.744,12.742c0,0.88,0.088,1.74,0.256,2.569l0,0c1.023,6.859,12.488,21.436,12.488,21.436
			s11.463-14.576,12.484-21.436c0.17-0.829,0.26-1.689,0.26-2.569C1429.873,18.71,1424.166,13.005,1417.129,13.005z"/>
		<path fill="#FFFFFF" d="M1417.129,17.226c-5.006,0-9.064,4.059-9.064,9.063c0,5.006,4.059,9.064,9.064,9.064
			s9.064-4.059,9.064-9.064C1426.193,21.284,1422.135,17.226,1417.129,17.226z M1417.129,32.746c-3.566,0-6.457-2.891-6.457-6.457
			s2.891-6.456,6.457-6.456s6.457,2.89,6.457,6.456S1420.695,32.746,1417.129,32.746z"/>
	</g>
</g>
<g>
	<circle fill="#EA8A23" cx="1479.927" cy="31.5" r="31.399"/>
	<g>
		<path fill="none" stroke="#FFFFFF" stroke-width="3" stroke-miterlimit="10" d="M1479.928,13.005
			c-7.039,0-12.744,5.705-12.744,12.742c0,0.88,0.088,1.74,0.256,2.569l0,0c1.023,6.859,12.488,21.436,12.488,21.436
			s11.463-14.576,12.484-21.436c0.17-0.829,0.26-1.689,0.26-2.569C1492.672,18.71,1486.965,13.005,1479.928,13.005z"/>
		<path fill="#FFFFFF" d="M1479.928,17.226c-5.006,0-9.064,4.059-9.064,9.063c0,5.006,4.059,9.064,9.064,9.064
			s9.064-4.059,9.064-9.064C1488.992,21.284,1484.934,17.226,1479.928,17.226z M1479.928,32.746c-3.566,0-6.457-2.891-6.457-6.457
			s2.891-6.456,6.457-6.456s6.457,2.89,6.457,6.456S1483.494,32.746,1479.928,32.746z"/>
	</g>
</g>
<g>
	<circle fill="#642667" cx="1920.623" cy="31.5" r="31.399"/>
</g>
<g>
	<g>
		<path fill="#FFFFFF" d="M1910.001,18.003l10.91,9.071l-2.896,6.328l-14.11-2.065l6.036-5.407L1910.001,18.003z M1911.687,26.717
			l-3.83,3.43l9.115,1.333l1.79-3.916l-7.039-5.853L1911.687,26.717z"/>
	</g>
	<g>
		<path fill="#FFFFFF" d="M1937.342,13.648l-18.535,40.506l-0.416,0.1c-5.095,1.205-8.421-2.383-9.471-4.449l-0.191-0.377
			l18.517-40.23C1927.245,9.197,1933.435,8.555,1937.342,13.648z M1928.226,11.238l-17.541,38.123
			c0.658,1.049,2.897,3.996,6.893,3.275l17.552-38.429C1932.862,11.127,1928.226,11.238,1928.226,11.238z"/>
	</g>
	<g>
		<path fill="#FFFFFF" d="M1915.378,34.898l4.637-10.131l1.591,0.728l-4.209,9.196c0.853,1.021,3.471,3.672,7.242,3.023l0.299,1.725
			c-5.666,0.973-9.131-3.924-9.275-4.133L1915.378,34.898z"/>
	</g>
	<g>
		<path fill="#FFFFFF" d="M1920.209,25.723l1.438-0.998c0.12,0.171,2.99,4.188,7.541,3.404l0.297,1.724
			C1923.819,30.829,1920.354,25.932,1920.209,25.723z"/>
	</g>
</g>
</svg>
