<?xml version="1.0" encoding="utf-8"?>
<!-- Generator: Adobe Illustrator 16.0.0, SVG Export Plug-In . SVG Version: 6.00 Build 0)  -->
<!DOCTYPE svg PUBLIC "-//W3C//DTD SVG 1.1//EN" "http://www.w3.org/Graphics/SVG/1.1/DTD/svg11.dtd">
<svg version="1.1" id="Layer_1" xmlns="http://www.w3.org/2000/svg" xmlns:xlink="http://www.w3.org/1999/xlink" x="0px" y="0px"
	 width="215.125px" height="43px" viewBox="0 0 215.125 43" enable-background="new 0 0 215.125 43" xml:space="preserve">
<g>
	<path fill="#2075BC" d="M43,21.5C43,33.374,33.374,43,21.5,43S0,33.374,0,21.5S9.626,0,21.5,0S43,9.626,43,21.5"/>
	<path fill="#FFFFFF" d="M18.514,31.956v-9.571H15.46v-4.072h3.054v-3.054c0,0,0.205-4.481,4.075-4.481h3.867v3.869H23.81
		c0,0-1.427,0.407-1.427,1.221v2.445h4.073v4.072h-4.275v9.571H18.514z"/>
</g>
<g>
	<path fill="#29AAE1" d="M86,21.5C86,33.374,76.374,43,64.5,43C52.625,43,43,33.374,43,21.5S52.625,0,64.5,0
		C76.374,0,86,9.626,86,21.5"/>
	<path fill="#FFFFFF" d="M71.623,15.608c0,0-2.423-3.085-4.849-1.543c-2.426,1.543-1.984,5.07-1.984,5.07s-4.41-1.092-5.952-2.751
		c-1.544-1.655-2.455-2.255-1.912,0.695c0.578,3.127,1.469,3.085,1.469,3.085l-3.233,0.148c0,0,4.411,2.865,5.292,3.086
		c0.882,0.22-2.206-0.662-2.646,0.879c-0.442,1.546,2.571,2.133,4.336,2.133c1.763,0-3.603,1.764-5.769,2.204
		c0,0,17.894,3.969,15.247-10.802l2.206-0.44l-1.324-1.028l1.324-1.177L71.623,15.608z"/>
</g>
<g>
	<path fill="#BA2032" d="M172,21.5c0,11.875-9.625,21.5-21.5,21.5S129,33.375,129,21.5C129,9.626,138.625,0,150.5,0
		S172,9.626,172,21.5"/>
	<path fill="#FFFFFF" d="M156.966,14.729h-12.932c-1.83,0-3.312,1.481-3.312,3.311v7.099c0,1.829,1.484,3.312,3.312,3.312h12.932
		c1.83,0,3.312-1.483,3.312-3.312V18.04C160.279,16.21,158.796,14.729,156.966,14.729 M147.941,25.499l-0.062-7.816l6.754,3.684
		L147.941,25.499z"/>
</g>
<g>
	<path fill="#EC2427" d="M215,21.5c0,11.874-9.625,21.5-21.5,21.5c-11.873,0-21.5-9.627-21.5-21.5S181.625,0,193.5,0
		S215,9.626,215,21.5"/>
	<path fill="#FFFFFF" d="M192.723,21.306c1.694-1.219,2.104-3.78,0.541-5.282c0,0-0.067-0.949,1.692-1.354
		c0,0-9.791-1.398-8.938,4.335c0,0,0.599,2.042,2.845,2.572c3.188,0.752-1.355,2.438-2.033,2.981
		c-0.677,0.541-1.896,1.601-1.625,3.034c0.271,1.437,2.438,2.654,5.553,2.247c3.115-0.406,4.877-2.844,3.66-4.876
		C193.196,22.934,191.033,22.525,192.723,21.306 M188.998,16.021c1.627-1.084,2.975,1.627,2.975,1.627s0.751,3.657-1.485,3.385
		C188.25,20.761,187.371,17.106,188.998,16.021 M190.062,28.619c-2.051,0.134-3.232-1.76-1.898-3.116
		c1.332-1.354,2.594-1.626,2.594-1.626s1.897,0.814,2.507,2.374C193.873,27.812,192.112,28.484,190.062,28.619"/>
	<rect x="198.339" y="14.812" fill="#FFFFFF" width="0.772" height="6.729"/>
	<rect x="195.5" y="17.82" fill="#FFFFFF" width="6.334" height="0.712"/>
</g>
<g>
	
		<radialGradient id="SVGID_1_" cx="93.2207" cy="42.6514" r="44.8973" gradientTransform="matrix(0.9892 0 0 0.9926 1.393 0.7998)" gradientUnits="userSpaceOnUse">
		<stop  offset="0.1174" style="stop-color:#FFE794"/>
		<stop  offset="0.284" style="stop-color:#FFB664"/>
		<stop  offset="0.4667" style="stop-color:#FF8A39"/>
		<stop  offset="0.6809" style="stop-color:#F84F7F"/>
		<stop  offset="1" style="stop-color:#5149D7"/>
	</radialGradient>
	<ellipse fill="url(#SVGID_1_)" cx="107.547" cy="21.5" rx="21.426" ry="21.5"/>
	<g>
		<path fill="#FFFFFF" d="M107.397,16.793c-2.642,0-4.785,2.125-4.785,4.749c0,2.623,2.143,4.75,4.785,4.75
			c2.643,0,4.786-2.128,4.786-4.75C112.183,18.919,110.041,16.793,107.397,16.793z M107.397,24.662c-1.736,0-3.144-1.396-3.144-3.12
			c0-1.723,1.408-3.12,3.144-3.12c1.737,0,3.145,1.397,3.145,3.12C110.542,23.266,109.134,24.662,107.397,24.662z"/>
		<g>
			<path fill="#FFFFFF" d="M111.356,30.854c-0.057,0-0.099-0.002-0.125-0.003h-7.745c-0.282,0.012-2.421,0.035-3.963-1.415
				c-1.021-0.959-1.537-2.313-1.537-4.028v-7.368c-0.025-0.351-0.106-2.437,1.326-4.003c1.029-1.125,2.549-1.696,4.52-1.696h7.055
				c1.971,0,3.491,0.571,4.519,1.696c1.433,1.566,1.354,3.652,1.328,4.003v7.368c0,1.715-0.518,3.069-1.539,4.028
				C113.796,30.753,111.906,30.854,111.356,30.854z M103.446,29.188l7.847,0.002c0.014,0,1.671,0.061,2.758-0.971
				c0.665-0.631,1.004-1.579,1.004-2.812v-7.441l0.005-0.04c0.001-0.012,0.133-1.657-0.905-2.782
				c-0.697-0.756-1.798-1.139-3.269-1.139h-7.055c-1.472,0-2.571,0.383-3.269,1.139c-1.037,1.125-0.906,2.77-0.904,2.785l0.004,0.04
				l-0.001,0.036v7.401c0,1.239,0.341,2.188,1.014,2.821c1.083,1.019,2.731,0.961,2.749,0.961L103.446,29.188z"/>
		</g>
		<ellipse fill="#FFFFFF" cx="112.388" cy="16.579" rx="1.2" ry="1.191"/>
	</g>
</g>
</svg>
